<svg width="100" height="116" viewBox="0 0 100 116" fill="none" xmlns="http://www.w3.org/2000/svg">
<g clip-path="url(#clip0_9_179)">
<path d="M0.488281 22.2614L0 22.8038V54.2411V85.6783L0.488281 86.2207L0.957031 86.7857H5.70312H10.4492L11.0156 87.9383C12.168 90.3114 14.5312 92.4358 17.1875 93.4754C18.6914 94.063 21.9531 94.063 23.4375 93.4754C26.1133 92.4132 27.9688 90.8086 29.2969 88.4129L30.1758 86.8083H50L69.8242 86.7857L70.3906 87.9383C71.543 90.3114 73.9062 92.4358 76.5625 93.4754C78.0664 94.063 81.3281 94.063 82.8125 93.4754C85.4883 92.4132 87.3438 90.8086 88.6719 88.4129L89.5508 86.8083H92.7539C94.6484 86.7857 96.2695 86.6727 96.7578 86.5145C97.832 86.1529 99.4531 84.277 99.7656 83.034C99.9414 82.356 100 79.1919 100 71.5982C100 59.8686 99.9805 59.7782 98.6914 58.2187C98.2812 57.7441 97.1094 56.8627 95.9961 56.2299C94.9219 55.5971 93.8086 54.8965 93.4961 54.6479C93.2031 54.3993 89.9023 49.269 86.1719 43.212C82.4609 37.1777 79.1016 31.8892 78.7109 31.4598C76.8164 29.3354 75.4297 28.9286 69.8828 28.9286H65.625V25.8775C65.625 22.9168 65.6055 22.7812 65.1367 22.2614L64.668 21.6964H32.8125H0.957031L0.488281 22.2614ZM62.5 26.2165V27.1205H56.7383H50.957L50.4883 27.6855C50.1758 28.0245 50 28.4991 50 28.9286C50 29.358 50.1758 29.8326 50.4883 30.1716L50.957 30.7366H56.7383H62.5V54.2411V77.7455H46.6211H30.7227L30.5078 76.8867C29.9805 74.8301 27.6953 71.7564 25.7812 70.4682C24.0625 69.293 22.5391 68.8635 20.3125 68.8635C18.0859 68.8635 16.5625 69.293 14.8438 70.4682C12.9297 71.7564 10.6445 74.8301 10.1172 76.8867L9.90234 77.7455H6.50391H3.125V54.2411V30.7366H24.5117H45.918L46.3867 30.1716C46.6992 29.8326 46.875 29.358 46.875 28.9286C46.875 28.4991 46.6992 28.0245 46.3867 27.6855L45.918 27.1205H24.5117H3.125V26.2165V25.3125H32.8125H62.5V26.2165ZM75.7031 33.3356C76.543 33.9459 77.4805 35.3471 83.4375 44.9749C87.1484 50.9866 90.5859 56.3655 91.0547 56.9079C91.582 57.5181 92.7539 58.3769 94.1797 59.2358C95.4492 59.9816 96.5625 60.7726 96.6797 61.0212C96.875 61.4506 96.8164 61.4732 95.7812 61.4732C94.082 61.4732 93.1836 61.88 92.0898 63.1682C90.0977 65.4509 90.0977 68.3437 92.0898 70.6264C93.1836 71.9146 94.082 72.3214 95.7812 72.3214H96.875V77.1805C96.875 82.0622 96.875 82.0622 96.3867 82.6046C95.9375 83.147 95.8203 83.1696 93.2227 83.1696H90.5273L90.5859 81.6328C90.7227 78.2879 89.5703 74.9431 87.4023 72.4344C85.1758 69.8354 82.832 68.7053 79.6875 68.7053C76.543 68.7053 74.1992 69.8354 71.9727 72.4344C69.8047 74.9431 68.6523 78.2879 68.7891 81.6328L68.8477 83.1696H67.2461H65.625V60.5692V37.9687H68.8477C70.6836 37.9687 72.2461 38.0591 72.5 38.2173C72.7539 38.3303 75.1562 41.969 77.8711 46.2857L82.793 54.1281L76.1523 54.2411L69.4922 54.3541L69.1211 54.8965C68.6133 55.6197 68.6523 56.6367 69.2383 57.2921L69.707 57.8571H78.125H86.543L87.0117 57.2921C87.9688 56.2073 87.9297 56.1395 81.6211 46.0823C78.3789 40.9294 75.5078 36.4319 75.2148 36.0703C74.9414 35.7087 74.2773 35.1889 73.7305 34.8951C72.8125 34.3979 72.5195 34.3527 69.1992 34.3527H65.625V33.426V32.522L70.1758 32.5898L74.7461 32.6576L75.7031 33.3356ZM96.875 66.8973V68.7053H95.8008C94.4922 68.7053 93.75 68.0499 93.75 66.8973C93.75 65.7447 94.4922 65.0893 95.8008 65.0893H96.875V66.8973ZM23.5156 73.1802C25.293 74.1294 26.4258 75.4403 27.3047 77.4743C27.9883 79.1015 28.0273 79.3049 28.0273 81.3616C28.0273 83.4182 27.9883 83.6216 27.3047 85.2489C26.4258 87.3055 25.293 88.5711 23.4766 89.5656C22.2852 90.221 21.9922 90.2888 20.3125 90.2888C18.6328 90.2888 18.3398 90.221 17.1484 89.5656C15.332 88.5711 14.1992 87.3055 13.3203 85.2489C12.6367 83.6216 12.5977 83.4182 12.5977 81.3842C12.5977 79.418 12.6562 79.0789 13.2227 77.7003C14.0039 75.7793 15.1172 74.3781 16.582 73.4966C18.1055 72.5474 18.9648 72.3214 20.7422 72.4118C21.9336 72.4796 22.5391 72.6604 23.5156 73.1802ZM82.8906 73.1802C84.668 74.1294 85.8008 75.4403 86.6797 77.4743C87.3633 79.1015 87.4023 79.3049 87.4023 81.3616C87.4023 83.4182 87.3633 83.6216 86.6797 85.2489C85.8008 87.3055 84.668 88.5711 82.8516 89.5656C81.6602 90.221 81.3672 90.2888 79.6875 90.2888C78.0078 90.2888 77.7148 90.221 76.5234 89.5656C74.707 88.5711 73.5742 87.3055 72.6953 85.2489C72.0117 83.6216 71.9727 83.4182 71.9727 81.3842C71.9727 79.418 72.0312 79.0789 72.5977 77.7003C73.3789 75.7793 74.4922 74.3781 75.957 73.4966C77.4805 72.5474 78.3398 72.3214 80.1172 72.4118C81.3086 72.4796 81.9141 72.6604 82.8906 73.1802ZM9.41406 82.2656L9.49219 83.1696H6.30859H3.125V82.2656V81.3616H6.23047H9.33594L9.41406 82.2656ZM62.5 82.2656V83.1696H46.8164H31.1328L31.2109 82.2656L31.2891 81.3616H46.8945H62.5V82.2656Z" fill="#115D09"/>
<path d="M69.2383 60.2302C68.9258 60.5692 68.75 61.0438 68.75 61.4732C68.75 61.9026 68.9258 62.3772 69.2383 62.7162C69.6875 63.2586 69.8438 63.2812 71.875 63.2812C73.9062 63.2812 74.0625 63.2586 74.5117 62.7162C74.8242 62.3772 75 61.9026 75 61.4732C75 61.0438 74.8242 60.5692 74.5117 60.2302C74.0625 59.6878 73.9062 59.6652 71.875 59.6652C69.8438 59.6652 69.6875 59.6878 69.2383 60.2302Z" fill="#115D09"/>
<path d="M18.75 76.2313C17.793 76.5929 16.1523 78.5365 15.8594 79.6891C15.3125 81.8136 15.7031 83.5086 17.0898 85.0906C19.0625 87.3959 21.5625 87.3959 23.5352 85.0906C25.4492 82.8984 25.5078 80.0733 23.6914 77.7455C22.4219 76.1183 20.6055 75.5533 18.75 76.2313ZM21.3867 80.1185C21.6992 80.4576 21.875 80.9322 21.875 81.3616C21.875 81.791 21.6992 82.2656 21.3867 82.6046C21.0938 82.9662 20.6836 83.1696 20.3125 83.1696C19.9414 83.1696 19.5313 82.9662 19.2383 82.6046C18.9258 82.2656 18.75 81.791 18.75 81.3616C18.75 80.9322 18.9258 80.4576 19.2383 80.1185C19.5313 79.7569 19.9414 79.5535 20.3125 79.5535C20.6836 79.5535 21.0938 79.7569 21.3867 80.1185Z" fill="#115D09"/>
<path d="M78.125 76.2313C77.168 76.5929 75.5273 78.5365 75.2344 79.6891C74.6875 81.8136 75.0781 83.5086 76.4648 85.0906C78.4375 87.3959 80.9375 87.3959 82.9102 85.0906C84.8242 82.8984 84.8828 80.0733 83.0664 77.7455C81.7969 76.1183 79.9805 75.5533 78.125 76.2313ZM80.7617 80.1185C81.7383 81.226 81.0547 83.1696 79.6875 83.1696C78.8867 83.1696 78.125 82.2882 78.125 81.3616C78.125 80.435 78.8867 79.5535 79.6875 79.5535C80.0586 79.5535 80.4688 79.7569 80.7617 80.1185Z" fill="#115D09"/>
</g>
<defs>
<clipPath id="clip0_9_179">
<rect width="100" height="115.714" fill="white"/>
</clipPath>
</defs>
</svg>
