<svg width="100" height="116" viewBox="0 0 100 116" fill="none" xmlns="http://www.w3.org/2000/svg">
<path d="M18.2617 4.47488C16.8164 5.06249 15.918 5.96651 15.2344 7.52594L14.6484 8.88197V57.8345V106.787L15.1172 107.917C15.6836 109.341 16.6211 110.448 17.7734 111.059L18.6523 111.533H50H81.3477L82.2266 111.059C83.3789 110.448 84.3164 109.341 84.8828 107.917L85.3516 106.787V57.8571V8.92717L84.8828 7.79715C84.3164 6.37332 83.3789 5.2659 82.2266 4.65569C81.3477 4.18108 81.3281 4.18108 50.293 4.13587C21.2305 4.09068 19.1797 4.11327 18.2617 4.47488ZM81.1914 7.61634C81.582 7.81975 82.0508 8.29436 82.2461 8.67857C82.5977 9.35658 82.6172 10.8256 82.6172 57.8571C82.6172 104.889 82.5977 106.358 82.2461 107.036C81.4258 108.595 83.8281 108.482 50 108.482C16.1719 108.482 18.5742 108.595 17.7539 107.036C17.4023 106.358 17.3828 104.889 17.3828 57.8571C17.3828 10.916 17.4023 9.35658 17.7539 8.67857C18.5742 7.14173 16.1328 7.23214 49.9609 7.23214C78.1055 7.23214 80.5664 7.25474 81.1914 7.61634Z" fill="#115D09"/>
<path d="M23.5156 14.4869C23.1641 14.9389 23.1445 15.5491 23.1445 30.5558V46.1501L23.6133 46.5795C24.0625 46.9863 24.7656 47.0089 50 47.0089C75.2344 47.0089 75.9375 46.9863 76.3867 46.5795L76.8555 46.1501V30.5106V14.8711L76.3867 14.4417C75.9375 14.0349 75.2344 14.0123 49.9023 14.0123H23.8867L23.5156 14.4869ZM74.2188 30.5106V43.8448H50H25.7812V30.5106V17.1763H50H74.2188V30.5106Z" fill="#115D09"/>
<path d="M23.5156 54.2637C23.1836 54.6931 23.1445 55.1903 23.0859 58.829C23.0078 63.3943 23.0859 64.2305 23.6523 64.8859C24.0039 65.2927 24.3555 65.3153 30.5859 65.3153C37.0703 65.3153 37.7344 65.2475 38.125 64.5469C38.2031 64.4113 38.2813 62.106 38.2813 59.4166C38.2813 54.9643 38.2422 54.5123 37.9297 54.1733C37.5977 53.8343 36.8164 53.7891 30.7227 53.7891C24.0234 53.7891 23.8867 53.7891 23.5156 54.2637ZM35.5469 59.5522V62.1512L30.7227 62.106L25.8789 62.0382L25.8203 59.4844L25.7617 56.9531H30.6641H35.5469V59.5522Z" fill="#115D09"/>
<path d="M42.7734 54.2411C42.4023 54.6705 42.3828 54.9869 42.3828 59.4392C42.3828 64.2079 42.3828 64.2079 42.8711 64.7503L43.3398 65.3153H50H56.6602L57.1289 64.7503C57.6172 64.2079 57.6172 64.2079 57.6172 59.4392C57.6172 54.9869 57.5977 54.6705 57.2266 54.2411C56.8555 53.8117 56.582 53.7891 50 53.7891C43.418 53.7891 43.1445 53.8117 42.7734 54.2411ZM54.8828 59.5522V62.1512H50H45.1172V59.5522V56.9531H50H54.8828V59.5522Z" fill="#115D09"/>
<path d="M62.0508 54.1959C61.7578 54.5575 61.7188 55.2581 61.7188 59.4618C61.7188 62.1286 61.7969 64.4113 61.875 64.5469C62.2656 65.2475 62.9297 65.3153 69.4141 65.3153C75.6445 65.3153 75.9961 65.2927 76.3477 64.8859C76.9141 64.2305 76.9922 63.3943 76.9141 58.829C76.8555 55.1903 76.8164 54.6931 76.4844 54.2637C76.1133 53.7891 75.9766 53.7891 69.2383 53.7891C62.832 53.7891 62.3438 53.8117 62.0508 54.1959ZM74.1797 59.4844L74.1211 62.0382L69.2969 62.106L64.4531 62.1512V59.5522V56.9531H69.3359H74.2383L74.1797 59.4844Z" fill="#115D09"/>
<path d="M24.0234 72.1632C23.125 72.7057 23.0273 73.2255 23.0859 78.0168C23.1445 82.3108 23.1641 82.4916 23.5937 82.9889L24.043 83.5087H30.7422C37.0703 83.5087 37.4805 83.4861 37.8711 83.0793C38.2617 82.6725 38.2812 82.4464 38.2812 77.7456C38.2812 73.0447 38.2617 72.8187 37.8711 72.4118C37.4805 72.005 37.0312 71.9824 30.9766 71.9146C26.0352 71.8694 24.3945 71.9372 24.0234 72.1632ZM35.5469 77.7456V80.4576L30.7227 80.4124L25.8789 80.3446L25.8203 77.9942C25.8008 76.6833 25.8203 75.4855 25.8594 75.3273C25.9375 75.1013 26.9727 75.0335 30.7617 75.0335H35.5469V77.7456Z" fill="#115D09"/>
<path d="M43.2227 72.0954C42.4609 72.457 42.3828 72.9995 42.3828 77.8134C42.3828 82.0396 42.4219 82.4916 42.7539 82.9663L43.125 83.5087H50H56.875L57.2461 82.9663C57.5781 82.4916 57.6172 82.0396 57.6172 77.7456C57.6172 73.4515 57.5781 72.9995 57.2461 72.5248L56.875 71.9824L50.2539 71.9372C46.6211 71.9146 43.457 71.9824 43.2227 72.0954ZM54.8828 77.7456V80.4576H50H45.1172V77.7456V75.0335H50H54.8828V77.7456Z" fill="#115D09"/>
<path d="M62.6953 72.0276C62.5391 72.0954 62.2461 72.2988 62.0703 72.5022C61.7383 72.8187 61.7188 73.7905 61.7188 86.9213V101.001L62.1484 101.34C62.5195 101.657 63.5352 101.702 69.2578 101.702C75.5469 101.702 75.957 101.679 76.3867 101.273L76.8555 100.843V86.9213V73.0221L76.4062 72.5022C75.9766 71.9824 75.9375 71.9824 69.4727 71.9372C65.918 71.9146 62.8516 71.9598 62.6953 72.0276ZM74.1797 86.8309L74.2188 98.538H69.3359H64.4531V86.7857V75.0335L69.2969 75.0787L74.1211 75.1465L74.1797 86.8309Z" fill="#115D09"/>
<path d="M23.6133 90.6052C23.1445 91.0346 23.1445 91.0572 23.1445 95.9389C23.1445 100.821 23.1445 100.843 23.6133 101.273C24.043 101.679 24.4531 101.702 30.7422 101.702C36.4648 101.702 37.4805 101.657 37.8516 101.34C38.2812 101.001 38.2812 100.911 38.2812 96.0293C38.2812 91.3736 38.2617 91.0572 37.8906 90.6278C37.5195 90.1984 37.2461 90.1758 30.7812 90.1758C24.4531 90.1758 24.043 90.1984 23.6133 90.6052ZM35.5469 95.9389V98.538H30.6641H25.7812V96.0971C25.7812 94.7411 25.8398 93.5659 25.918 93.4981C25.9766 93.4077 28.1836 93.3399 30.8008 93.3399H35.5469V95.9389Z" fill="#115D09"/>
<path d="M42.8711 90.7408C42.3828 91.2832 42.3828 91.3058 42.3828 96.0067C42.3828 100.64 42.3828 100.73 42.832 101.205C43.2812 101.702 43.3789 101.702 50.0195 101.702H56.7773L57.1875 101.182C57.5977 100.685 57.6172 100.459 57.6172 95.9615C57.6172 91.3058 57.6172 91.2832 57.1289 90.7408L56.6602 90.1758H50H43.3398L42.8711 90.7408ZM54.8828 95.9389V98.538H50H45.1172V95.9389V93.3399H50H54.8828V95.9389Z" fill="#115D09"/>
</svg>
