<svg width="100" height="116" viewBox="0 0 100 116" fill="none" xmlns="http://www.w3.org/2000/svg">
<path d="M46.5625 4.61051C35.7422 6.66715 27.793 16.8374 27.207 29.3806C27.0898 31.9345 27.1094 32.0249 27.6172 32.9515C28.3594 34.3075 28.2812 34.6013 27.1094 35.2341C25.0195 36.3415 23.6328 38.8502 23.6328 41.5622C23.6328 43.3703 24.1016 44.7715 25.1367 46.1049C26.0742 47.3254 26.7578 47.8226 28.0273 48.252L28.7891 48.5232L29.043 50.5346C29.8242 56.8627 32.6367 62.5581 36.8945 66.4453L38.4961 67.9144L38.3594 70.5134C38.3008 71.9372 38.2227 73.1351 38.2031 73.1577C38.1836 73.1803 35.7617 73.4515 32.8125 73.7679C29.8633 74.1069 26.6992 74.5815 25.7812 74.8301C23.7305 75.3951 20.2539 77.3162 18.5352 78.8304C15.8594 81.1808 13.3789 84.9099 12.1289 88.5034C10.8008 92.3002 10.5078 95.1705 10.5859 104.03L10.6445 110.561L11.1133 110.991C11.5625 111.42 12.4609 111.42 50 111.42C87.5391 111.42 88.4375 111.42 88.8867 110.991L89.3555 110.561L89.4141 104.03C89.4922 94.8767 89.1992 92.1646 87.7148 88.1418C85.7617 82.8985 82.5586 79.0338 78.0273 76.5025C75.1367 74.8753 73.5156 74.4685 67.1875 73.7679C64.2383 73.4515 61.8164 73.1803 61.7969 73.1577C61.7773 73.1351 61.6992 71.9372 61.6406 70.5134L61.5039 67.9144L63.1055 66.4453C67.3633 62.5581 70.1758 56.8627 70.957 50.5346L71.2109 48.5232L71.9727 48.252C73.2422 47.8226 73.9258 47.3254 74.8633 46.1049C76.3672 44.1613 76.7773 41.5396 75.957 38.9858C75.4492 37.4264 74.0039 35.6861 72.7734 35.1437C71.7188 34.6691 71.6406 34.3075 72.3633 32.9967C72.9492 31.9118 73.0078 30.2394 72.5781 26.8946C71.8359 21.2444 69.6484 16.2045 66.2109 12.1817C62.9102 8.36218 59.1211 5.96654 54.5898 4.85912C52.5 4.36191 48.5742 4.2263 46.5625 4.61051ZM53.3398 7.81977C61.2109 9.3792 67.4805 16.0915 69.4531 25.0413C69.707 26.2165 69.9219 27.5274 69.9219 27.9568C69.9219 28.6348 69.8633 28.7252 69.5898 28.5896C66.6992 27.211 63.6133 26.2617 60.0586 25.7193C57.3438 25.3125 42.6562 25.3125 39.9414 25.7193C36.3867 26.2617 33.3008 27.211 30.4297 28.5896C30.1367 28.7252 30.0781 28.6348 30.0781 27.9568C30.0781 27.5274 30.293 26.1939 30.5469 25.0187C33.125 13.2891 43.0664 5.78574 53.3398 7.81977ZM60.7422 29.019C61.875 29.2224 63.6133 29.6518 64.5898 29.9456C66.3672 30.488 69.0625 31.6858 69.4141 32.0927C69.668 32.3865 68.125 34.6465 67.1094 35.4601C64.5703 37.4942 60.1758 38.1948 50 38.1948C39.8242 38.1948 35.4297 37.4942 32.8906 35.4601C31.8164 34.6239 30.332 32.3865 30.6055 32.0701C31.3281 31.2338 36.1133 29.584 39.3555 29.0642C42.6172 28.5218 42.7148 28.5218 50.9766 28.5896C57.0312 28.6348 59.1406 28.7252 60.7422 29.019ZM34.1602 39.6864C36.1523 40.4774 38.5742 40.9068 42.8711 41.1554C47.8711 41.4718 58.4766 41.2684 61.543 40.7938C64.668 40.3192 67.3438 39.3248 68.418 38.24C68.5938 38.0592 68.7891 37.9462 68.8477 38.014C69.0039 38.1722 68.3789 49.3142 68.1445 50.964C66.875 59.4844 61.1133 66.3097 53.6523 68.1404C51.9336 68.5698 48.0664 68.5698 46.3477 68.1404C38.9844 66.3323 33.3594 59.8008 31.9531 51.3934C31.7188 50.0374 31.0547 40.1158 31.0547 38.0592C31.0547 37.8558 31.3672 37.9914 31.9531 38.466C32.4414 38.8502 33.4375 39.3926 34.1602 39.6864ZM28.4961 41.5848C28.6133 43.5059 28.6523 45.1105 28.6133 45.1557C28.5742 45.2009 28.2227 45.0201 27.832 44.7489C26.6016 43.8675 26.0352 41.743 26.5625 40.0932C26.7578 39.5282 28.0859 37.8558 28.2422 38.014C28.2617 38.0592 28.3789 39.6638 28.4961 41.5848ZM72.5 38.6468C74.1016 40.0932 73.9258 43.4833 72.207 44.7263C71.8359 44.9975 71.4844 45.2009 71.4062 45.2009C71.3281 45.2009 71.3086 44.5229 71.3672 43.6641C71.4258 42.8279 71.5234 41.2684 71.6016 40.161C71.6602 39.0762 71.7773 38.1948 71.875 38.1948C71.9531 38.1948 72.2461 38.3982 72.5 38.6468ZM43.4961 70.4908C45.8398 71.3948 47.4609 71.666 50.2148 71.666C53.0859 71.666 55.6055 71.0784 58.418 69.745C58.8477 69.5416 58.9844 70.1744 58.9844 72.3215C58.9844 75.5533 58.1445 77.949 56.2695 80.1186C52.4219 84.5709 46.1719 84.0511 42.832 78.9886C42.3828 78.3106 41.8359 77.1579 41.6016 76.4573C40.8984 74.3555 40.8008 69.3834 41.4648 69.6998C41.6016 69.745 42.5 70.1066 43.4961 70.4908ZM38.7891 76.7737C39.3164 78.6948 40.4102 80.7062 41.7773 82.2656C43.4766 84.2319 44.9805 85.2263 47.1875 85.8817C49.9414 86.6953 52.9297 86.2885 55.5273 84.7065C57.3438 83.6217 59.5312 80.9774 60.3906 78.8756C60.7812 77.949 61.1523 76.9997 61.2109 76.7737C61.3281 76.3669 62.1484 76.2539 63.0469 76.5251L63.4766 76.6607V83.4183V90.1758H50H36.5234V83.4183C36.5234 75.8697 36.4062 76.4799 37.9492 76.4121C38.4961 76.3895 38.7109 76.5025 38.7891 76.7737ZM33.75 83.4409L33.6914 90.0628L32.7734 90.1306L31.8359 90.1984V83.6443V77.0901L32.3828 76.9997C32.6758 76.9545 33.1055 76.8867 33.3594 76.8641L33.7891 76.8415L33.75 83.4409ZM67.4414 76.9771L68.1641 77.1353V83.6669V90.1984L67.2461 90.1306L66.3086 90.0628L66.25 83.4409C66.2109 78.2428 66.25 76.8415 66.4453 76.8415C66.582 76.8415 67.0312 76.9093 67.4414 76.9771ZM29.1016 92.9105V108.256H21.1914H13.2812V102.651C13.2812 99.5776 13.3789 96.1423 13.4961 95.0349C14.3164 87.1699 19.1016 80.4576 25.5273 78.1976C26.9922 77.6778 28.7109 77.3162 28.9648 77.4518C29.043 77.497 29.1016 84.4579 29.1016 92.9105ZM74.7461 78.3106C79.3359 80.0056 83.5352 84.5483 85.3516 89.8142C86.4453 92.9557 86.5625 93.9727 86.6602 101.408L86.7578 108.256H78.8281H70.8984V92.9331C70.8984 84.5031 70.9375 77.5422 70.9961 77.4744C71.1719 77.271 73.1641 77.723 74.7461 78.3106ZM68.1641 100.798V108.256H50H31.8359V100.798V93.3399H50H68.1641V100.798Z" fill="#115D09"/>
<path d="M48.125 11.8427C47.2266 12.2947 46.1328 13.5151 45.6445 14.5547C45.0586 15.843 45.0586 18.2838 45.6445 19.5494C46.5625 21.5383 48.125 22.6457 50 22.6457C51.875 22.6457 53.4375 21.5383 54.3555 19.5494C54.9414 18.2838 54.9414 15.843 54.3555 14.5547C53.8672 13.4925 52.7539 12.2721 51.8359 11.8427C51.0156 11.4359 48.9258 11.4585 48.125 11.8427ZM51.4844 15.4587C52.2461 16.3402 52.3633 17.2668 51.8164 18.3064C50.7031 20.4986 47.8516 19.5042 47.8516 16.9504C47.8516 15.8204 48.9258 14.6903 50 14.6903C50.6641 14.6903 50.9375 14.8259 51.4844 15.4587Z" fill="#115D09"/>
<path d="M15.8398 94.4473C15.1172 95.2835 15.0391 99.9166 15.7227 100.798C16.1523 101.363 17.0117 101.386 17.5391 100.843C17.8711 100.504 17.9492 100.097 18.0273 97.8147C18.125 95.3965 18.0859 95.1027 17.7344 94.5829C17.2656 93.8823 16.3672 93.8371 15.8398 94.4473Z" fill="#115D09"/>
</svg>
