<svg width="100" height="116" viewBox="0 0 100 116" fill="none" xmlns="http://www.w3.org/2000/svg">
<g clip-path="url(#clip0_9_202)">
<path d="M55.0195 0.316437C54.6289 0.47464 54.0234 0.858849 53.6914 1.15265C53.3789 1.44646 47.4218 11.3455 40.4687 23.1655L27.832 44.6359L24.2578 44.7037L20.6836 44.7489L20.7812 44.0257C20.8398 43.6189 21.2109 39.5734 21.582 35.0307C21.9531 30.488 22.3047 26.3521 22.3632 25.8323C22.4804 24.9057 22.539 24.8379 23.8672 24.0243C25.1953 23.2107 27.0703 21.3575 27.8515 20.0466L28.2422 19.3912L33.8867 20.0692C37.7148 20.4986 39.7265 20.6568 40.0781 20.5212C41.1718 20.0918 41.25 18.1482 40.1953 17.6284C39.9414 17.4928 37.1679 17.1086 34.0039 16.747C27.6367 16.0463 27.1484 16.0689 26.2109 17.2668C25.8984 17.651 25.1953 18.5324 24.6289 19.233C24.0429 19.9788 23.2031 20.7472 22.5195 21.1314C20.7812 22.1033 20.1757 22.7135 19.8632 23.7757C19.6679 24.3633 19.2187 28.793 18.7109 34.7369L17.8711 44.7489H16.9531H16.0156L16.1132 43.8901C16.1718 43.4381 16.7968 36.3642 17.4804 28.1828C18.1836 19.9788 18.8476 13.1083 18.9453 12.8597C19.2382 12.2269 19.7851 11.9783 20.8398 11.9783C21.3476 11.9783 26.5625 12.5433 32.4023 13.2213C41.8164 14.3061 43.1054 14.3965 43.5742 14.1253C44.5117 13.5603 44.4726 11.7749 43.5156 11.3003C43.2617 11.1872 39.8242 10.7352 35.8398 10.2832C31.875 9.83122 26.7968 9.26621 24.5507 8.995C22.2851 8.7464 20.1172 8.6108 19.6484 8.6786C17.8711 8.995 16.3476 10.7578 15.9961 12.9501C15.8789 13.6055 15.332 19.572 14.7656 26.2165L13.75 38.3078L11.289 38.4434C9.17966 38.5338 8.69137 38.6468 7.89059 39.1214C6.23044 40.1158 5.29294 41.9917 5.27341 44.4099C5.25387 45.4947 5.21481 45.5625 4.33591 46.2179C3.84762 46.5796 3.1445 47.3254 2.79294 47.8678C1.48434 49.8566 1.54294 48.1164 1.60153 80.7062L1.66012 110.177L2.12887 111.352C2.69528 112.844 4.29684 114.584 5.56637 115.172C6.52341 115.601 7.53903 115.601 47.7539 115.601H88.9648L89.9804 115.059C91.1914 114.426 92.6367 112.731 93.2226 111.239C93.6328 110.222 93.6523 109.861 93.7109 101.521L93.7695 92.8879H94.4922C96.1718 92.8879 97.6562 91.916 98.164 90.4696C98.3789 89.882 98.4375 87.7576 98.4375 80.2316C98.4375 71.214 98.4179 70.6716 98.0468 69.8354C97.4609 68.502 96.6406 67.937 95.0781 67.8466L93.75 67.7562V59.5748C93.75 52.7043 93.6914 51.19 93.4375 50.173C93.0859 48.817 92.2656 47.2802 91.5039 46.6021C91.0547 46.1953 91.0156 45.9919 91.0156 44.4777C91.0156 42.4663 90.4297 40.8616 89.2968 39.7768C88.4765 39.0084 87.0312 38.4208 85.8984 38.4208H85.1367L87.4218 34.5561C88.6914 32.4091 89.8242 30.2168 89.9804 29.6292C90.4492 27.8212 89.9414 25.6741 88.7304 24.3859C88.4375 24.0695 85.8593 21.9677 83.0078 19.7302C80.1562 17.4928 73.6133 12.3173 68.457 8.24919C63.3008 4.18111 58.8281 0.700645 58.5156 0.519836C57.7148 0.0452271 55.9179 -0.0677719 55.0195 0.316437ZM57.4414 3.6387C58.6328 4.36192 86.3086 26.3521 86.7773 26.9172C87.6367 27.9794 87.5 28.5218 85.6054 31.7763C84.6484 33.3809 82.5781 36.9518 80.957 39.709L78.0273 44.7263L76.8945 44.7489H75.7812L78.0664 40.8842C79.3164 38.7372 80.4492 36.6128 80.6054 36.1155C80.8984 35.0985 80.7812 34.3301 79.9609 32.0927C79.5117 30.8496 79.414 30.262 79.375 28.1828C79.3359 26.1713 79.2383 25.6063 78.9062 24.9961C78.6328 24.4537 76.2109 22.4197 70.5859 17.99C66.2304 14.5547 62.4609 11.6393 62.1875 11.5263C61.3281 11.1421 60.4297 11.2776 58.8476 12.0235C57.5195 12.6563 57.0703 12.7467 55.2343 12.7919C52.7734 12.8597 52.0703 13.1535 51.2304 14.5321C50.8984 15.0519 46.8359 21.9451 42.1875 29.8326C37.539 37.7202 33.6328 44.3195 33.5156 44.4777C33.3593 44.6585 32.9101 44.7489 32.2656 44.7037L31.289 44.6359L43.1836 24.4085C49.7265 13.2891 55.2734 4.00031 55.4883 3.7743C55.957 3.34489 56.8554 3.27709 57.4414 3.6387ZM69.0429 20.7472L76.4648 26.6008L76.582 29.0642C76.6797 30.9852 76.8164 31.8667 77.2265 33.1097C77.5195 33.9685 77.7734 34.8499 77.7929 35.0307C77.8125 35.2341 76.6015 37.4942 75.0976 40.0706L72.3633 44.7263L69.9218 44.7489H67.4609L67.2461 43.2347C66.9336 41.1554 65.664 38.3078 64.3359 36.6354C62.9297 34.8725 61.4258 33.7425 59.414 32.9289C55.332 31.3017 50.4492 32.6351 47.4414 36.2059C45.7617 38.1948 44.4922 41.0198 44.1797 43.4607L44.0429 44.6359L40.4687 44.7037C37.5976 44.7489 36.914 44.7037 37.0312 44.4777C37.1289 44.3195 40.9179 37.8558 45.4687 30.1038L53.75 16.0463H55.5859C56.9922 16.0463 57.7539 15.9107 58.9258 15.4813C59.7656 15.1649 60.5859 14.8259 60.7226 14.7129C60.8984 14.5773 61.1523 14.5773 61.3086 14.6903C61.4843 14.8033 64.9609 17.5154 69.0429 20.7472ZM57.9101 35.8217C59.4922 36.3189 60.8008 37.1778 61.9922 38.5564C63.2226 39.9802 63.9648 41.4945 64.3359 43.3477L64.6093 44.7489H55.7422H46.8554L46.9922 43.8901C47.8906 38.1722 53.0273 34.3527 57.9101 35.8217ZM13.3984 42.5115C13.3398 42.8957 13.2812 43.5737 13.2812 43.9805V44.7489H10.7422H8.20309V43.9353C8.20309 43.3477 8.35934 42.9635 8.7695 42.4663C9.33591 41.8335 9.3945 41.8109 11.4257 41.8109H13.5351L13.3984 42.5115ZM87.3633 42.2855C87.9297 42.7827 88.457 44.4325 88.164 44.7037C88.0664 44.7941 86.5234 44.8393 84.7265 44.7941L81.4648 44.7263L82.2851 43.2799L83.1054 41.8109H84.9804C86.582 41.8109 86.9336 41.8787 87.3633 42.2855ZM89.3945 48.9526C90.625 50.0826 90.8203 50.7832 90.8203 53.9473V56.7272H47.6562H4.49216V53.9021C4.49216 51.8907 4.57028 50.8736 4.76559 50.4442C5.11716 49.6532 6.01559 48.6814 6.64059 48.3876C6.95309 48.252 21.1133 48.1842 47.8906 48.2068L88.6328 48.252L89.3945 48.9526ZM90.8203 63.9593V67.8014H83.457C77.5586 67.8014 75.8203 67.8692 74.8242 68.1404C71.4062 69.0896 68.4765 72.1181 67.1875 76.0505C66.6406 77.7456 66.4453 81.2034 66.7968 82.9663C67.6758 87.3508 70.5664 90.9216 74.414 92.3455C75.332 92.6845 76.5429 92.7523 83.164 92.8427L90.8203 92.9331V96.7525V100.572H55.7031C20.7422 100.572 20.5664 100.572 20.2148 101.024C19.7656 101.612 19.7656 102.696 20.2148 103.284C20.5664 103.736 20.7422 103.736 55.7031 103.736H90.8203V106.606C90.8203 109.183 90.7617 109.59 90.3711 110.403C90.1172 110.9 89.5898 111.511 89.1601 111.804L88.3789 112.324H47.6953C2.36325 112.324 6.23044 112.46 5.11716 110.787C4.60934 110.019 4.58981 109.861 4.53122 106.855L4.45309 103.736H8.57419C12.4414 103.736 12.7148 103.713 13.0859 103.284C13.3007 103.035 13.4765 102.538 13.4765 102.154C13.4765 101.77 13.3007 101.273 13.0859 101.024C12.7148 100.595 12.4414 100.572 8.59372 100.572H4.49216V80.3446V60.1172H47.6562H90.8203V63.9593ZM95.4687 80.2768L95.5078 89.4978H85.9961C80.4101 89.4978 76.1133 89.3848 75.625 89.2718C72.5586 88.4356 70.0976 85.4297 69.5117 81.791C68.7304 76.8415 71.8945 71.8695 76.2304 71.214C76.8945 71.101 81.4843 71.0332 86.4258 71.0558L95.4101 71.0784L95.4687 80.2768Z" fill="#115D09"/>
<path d="M75.9765 73.8809C73.5156 74.7623 71.6797 77.9038 71.9336 80.7966C72.2461 84.3901 74.5898 86.8762 77.6172 86.8762C82.6562 86.8988 85.2148 80.2768 81.9336 75.7567C81.6601 75.3725 80.8984 74.7397 80.2344 74.3781C79.2383 73.7905 78.8086 73.6775 77.7539 73.7001C77.0508 73.7001 76.25 73.7905 75.9765 73.8809ZM78.789 77.158C80.8398 78.1524 81.1523 81.4747 79.3359 83.0341C78.5937 83.6895 77.0117 83.7573 76.2109 83.1923C74.2383 81.7459 74.3554 78.3558 76.4453 77.271C77.4023 76.7738 77.9297 76.7512 78.789 77.158Z" fill="#115D09"/>
</g>
<defs>
<clipPath id="clip0_9_202">
<rect width="100" height="115.714" fill="white"/>
</clipPath>
</defs>
</svg>
