<svg width="25" height="25" viewBox="0 0 25 25" fill="none" xmlns="http://www.w3.org/2000/svg">
<path d="M20.7812 21.875C20.9549 21.875 21.1372 21.8708 21.3281 21.8625C21.5191 21.8535 21.7014 21.8403 21.875 21.8229V15.7292L16.6667 14.6875L13.6458 17.7083C12.3264 16.9097 11.1153 15.9635 10.0125 14.8698C8.91042 13.776 7.99479 12.6042 7.26563 11.3542L10.2344 8.35937L9.27083 3.125H3.17708C3.14236 3.29861 3.125 3.4809 3.125 3.67188V4.21875C3.125 6.45833 3.62431 8.64132 4.62292 10.7677C5.62083 12.8948 6.94028 14.783 8.58125 16.4323C10.2215 18.0816 12.1049 19.401 14.2312 20.3906C16.3583 21.3802 18.5417 21.875 20.7812 21.875Z" fill="#FFFEFE"/>
</svg>
